<svg xmlns="http://www.w3.org/2000/svg" xmlns:xlink="http://www.w3.org/1999/xlink" width="500" zoomAndPan="magnify" viewBox="0 0 375 374.999991" height="500" preserveAspectRatio="xMidYMid meet" version="1.0"><defs><clipPath id="d88fabd450"><path d="M 112.5 112.5 L 262.5 112.5 L 262.5 239 L 112.5 239 Z M 112.5 112.5 " clip-rule="nonzero"/></clipPath><clipPath id="ddf3767b21"><path d="M 132 210 L 243 210 L 243 262.5 L 132 262.5 Z M 132 210 " clip-rule="nonzero"/></clipPath></defs><g clip-path="url(#d88fabd450)"><path fill="#393a58" d="M 187.5 112.507812 C 146.078125 112.507812 112.5 146.085938 112.5 187.507812 C 112.5 207.339844 120.210938 225.363281 132.785156 238.773438 L 242.214844 238.773438 C 254.789062 225.363281 262.5 207.339844 262.5 187.507812 C 262.5 146.085938 228.921875 112.507812 187.5 112.507812 Z M 187.5 112.507812 " fill-opacity="1" fill-rule="nonzero"/></g><path fill="#f8d270" d="M 200.761719 224.824219 L 200.761719 211.058594 L 196.964844 210.246094 C 196.558594 208.574219 196.425781 206.769531 196.425781 205.007812 L 196.425781 190.773438 L 178.53125 190.773438 L 178.53125 205.007812 C 178.53125 206.769531 178.398438 208.574219 177.988281 210.246094 L 174.195312 211.058594 L 174.195312 224.824219 Z M 200.761719 224.824219 " fill-opacity="1" fill-rule="nonzero"/><g clip-path="url(#ddf3767b21)"><path fill="#ededed" d="M 242.5 238.460938 C 228.8125 253.242188 209.21875 262.492188 187.5 262.492188 C 165.78125 262.492188 146.1875 253.242188 132.5 238.460938 C 135.96875 219.617188 151.625 212.929688 172.03125 211.054688 C 173.03125 210.960938 174.09375 210.867188 175.15625 210.835938 C 175.375 217.429688 180.84375 222.773438 187.46875 222.773438 C 194.527344 222.773438 199.8125 216.84375 199.8125 210.835938 C 200.84375 210.867188 201.9375 210.960938 202.9375 211.054688 C 223.375 212.929688 239.03125 219.585938 242.5 238.460938 Z M 242.5 238.460938 " fill-opacity="1" fill-rule="nonzero"/></g><path fill="#fee29c" d="M 220.457031 171.632812 C 220.457031 172.15625 220.425781 172.679688 220.359375 173.195312 C 220.296875 173.710938 220.199219 174.210938 220.074219 174.695312 C 219.949219 175.183594 219.792969 175.644531 219.613281 176.082031 C 219.429688 176.519531 219.222656 176.921875 218.988281 177.292969 C 218.753906 177.667969 218.503906 178 218.230469 178.289062 C 217.953125 178.582031 217.664062 178.828125 217.363281 179.03125 C 217.058594 179.230469 216.746094 179.382812 216.421875 179.488281 C 216.097656 179.589844 215.773438 179.640625 215.445312 179.640625 C 215.113281 179.640625 214.789062 179.589844 214.464844 179.488281 C 214.144531 179.382812 213.828125 179.230469 213.527344 179.03125 C 213.222656 178.828125 212.933594 178.582031 212.660156 178.289062 C 212.386719 178 212.132812 177.667969 211.898438 177.292969 C 211.667969 176.921875 211.457031 176.519531 211.277344 176.082031 C 211.09375 175.644531 210.9375 175.183594 210.8125 174.695312 C 210.6875 174.210938 210.589844 173.710938 210.527344 173.195312 C 210.464844 172.679688 210.429688 172.15625 210.429688 171.632812 C 210.429688 171.105469 210.464844 170.585938 210.527344 170.070312 C 210.589844 169.554688 210.6875 169.050781 210.8125 168.566406 C 210.9375 168.082031 211.09375 167.617188 211.277344 167.179688 C 211.457031 166.746094 211.667969 166.339844 211.898438 165.96875 C 212.132812 165.597656 212.386719 165.265625 212.660156 164.972656 C 212.933594 164.679688 213.222656 164.433594 213.527344 164.230469 C 213.828125 164.03125 214.144531 163.878906 214.464844 163.777344 C 214.789062 163.671875 215.113281 163.621094 215.445312 163.621094 C 215.773438 163.621094 216.097656 163.671875 216.421875 163.777344 C 216.746094 163.878906 217.058594 164.03125 217.363281 164.230469 C 217.664062 164.433594 217.953125 164.679688 218.230469 164.972656 C 218.503906 165.265625 218.753906 165.597656 218.988281 165.96875 C 219.222656 166.339844 219.429688 166.746094 219.613281 167.179688 C 219.792969 167.617188 219.949219 168.082031 220.074219 168.566406 C 220.199219 169.050781 220.296875 169.554688 220.359375 170.070312 C 220.425781 170.585938 220.457031 171.105469 220.457031 171.632812 Z M 220.457031 171.632812 " fill-opacity="1" fill-rule="nonzero"/><path fill="#fee29c" d="M 164.554688 171.632812 C 164.554688 172.15625 164.519531 172.679688 164.457031 173.195312 C 164.394531 173.710938 164.296875 174.210938 164.171875 174.695312 C 164.046875 175.183594 163.890625 175.644531 163.707031 176.082031 C 163.527344 176.519531 163.316406 176.921875 163.085938 177.292969 C 162.851562 177.667969 162.597656 178 162.324219 178.289062 C 162.050781 178.582031 161.761719 178.828125 161.457031 179.03125 C 161.15625 179.230469 160.839844 179.382812 160.519531 179.488281 C 160.195312 179.589844 159.871094 179.640625 159.539062 179.640625 C 159.210938 179.640625 158.886719 179.589844 158.5625 179.488281 C 158.238281 179.382812 157.925781 179.230469 157.621094 179.03125 C 157.316406 178.828125 157.03125 178.582031 156.753906 178.289062 C 156.480469 178 156.230469 177.667969 155.996094 177.292969 C 155.761719 176.921875 155.554688 176.519531 155.371094 176.082031 C 155.191406 175.644531 155.035156 175.183594 154.910156 174.695312 C 154.785156 174.210938 154.6875 173.710938 154.625 173.195312 C 154.558594 172.679688 154.527344 172.15625 154.527344 171.632812 C 154.527344 171.105469 154.558594 170.585938 154.625 170.070312 C 154.6875 169.554688 154.785156 169.050781 154.910156 168.566406 C 155.035156 168.082031 155.191406 167.617188 155.371094 167.179688 C 155.554688 166.746094 155.761719 166.339844 155.996094 165.96875 C 156.230469 165.597656 156.480469 165.265625 156.753906 164.972656 C 157.03125 164.679688 157.316406 164.433594 157.621094 164.230469 C 157.925781 164.03125 158.238281 163.878906 158.5625 163.777344 C 158.886719 163.671875 159.210938 163.621094 159.539062 163.621094 C 159.871094 163.621094 160.195312 163.671875 160.519531 163.777344 C 160.839844 163.878906 161.15625 164.03125 161.457031 164.230469 C 161.761719 164.433594 162.050781 164.679688 162.324219 164.972656 C 162.597656 165.265625 162.851562 165.597656 163.085938 165.96875 C 163.316406 166.339844 163.527344 166.746094 163.707031 167.179688 C 163.890625 167.617188 164.046875 168.082031 164.171875 168.566406 C 164.296875 169.050781 164.394531 169.554688 164.457031 170.070312 C 164.519531 170.585938 164.554688 171.105469 164.554688 171.632812 Z M 164.554688 171.632812 " fill-opacity="1" fill-rule="nonzero"/><path fill="#fee29c" d="M 215.445312 173.648438 C 215.445312 189.082031 202.941406 208.128906 187.507812 208.128906 C 172.074219 208.128906 159.539062 189.082031 159.539062 173.648438 C 159.539062 158.21875 172.074219 145.714844 187.507812 145.714844 C 202.941406 145.714844 215.445312 158.214844 215.445312 173.648438 Z M 215.445312 173.648438 " fill-opacity="1" fill-rule="nonzero"/><path fill="#b69a52" d="M 212.113281 167.15625 C 211.492188 163.195312 208.648438 161.371094 204.863281 162.683594 C 192.71875 166.894531 182.203125 164.316406 172.882812 155.710938 C 170.332031 153.351562 167.339844 154.09375 164.953125 157.574219 C 161.441406 162.695312 160.15625 168.429688 160.632812 174.585938 C 160.710938 175.585938 160.855469 176.585938 160.21875 178.132812 C 158.992188 176.714844 151.386719 162.679688 154.226562 149.609375 C 155.410156 144.148438 158.535156 140.179688 164.601562 139.386719 C 165.289062 139.296875 166.230469 138.96875 166.53125 138.445312 C 171.808594 129.246094 180.628906 128.132812 189.757812 128.832031 C 202.6875 129.820312 212.578125 136.089844 217.378906 148.402344 C 220.492188 156.394531 218.867188 164.699219 216.105469 172.648438 C 215.585938 174.132812 214.445312 175.40625 213.589844 176.777344 C 213.203125 176.339844 212.539062 169.878906 212.113281 167.15625 Z M 212.113281 167.15625 " fill-opacity="1" fill-rule="nonzero"/><path fill="#b69a52" d="M 199.8125 210.835938 C 199.8125 216.707031 194.664062 222.773438 187.46875 222.773438 C 180.84375 222.773438 175.375 217.429688 175.15625 210.835938 C 174.09375 210.867188 173.03125 210.960938 172.03125 211.054688 C 172.320312 219.222656 179.078125 225.929688 187.46875 225.929688 C 195.894531 225.929688 202.652344 219.171875 202.9375 211.054688 C 201.9375 210.960938 200.84375 210.867188 199.8125 210.835938 Z M 199.8125 210.835938 " fill-opacity="1" fill-rule="nonzero"/></svg>