<svg xmlns="http://www.w3.org/2000/svg" xmlns:xlink="http://www.w3.org/1999/xlink" width="500" zoomAndPan="magnify" viewBox="0 0 375 374.999991" height="500" preserveAspectRatio="xMidYMid meet" version="1.0"><defs><clipPath id="4a2364f6bb"><path d="M 6 62.101562 L 370 62.101562 L 370 312.601562 L 6 312.601562 Z M 6 62.101562 " clip-rule="nonzero"/></clipPath></defs><g clip-path="url(#4a2364f6bb)"><path fill="#ffffff" d="M 325.074219 301.355469 L 50.035156 301.355469 C 33.691406 301.355469 20.121094 289.476562 17.445312 273.898438 L 357.632812 273.898438 C 355.019531 289.476562 341.417969 301.355469 325.074219 301.355469 Z M 38.300781 80.128906 C 38.300781 76.167969 41.398438 73.046875 45.363281 73.046875 L 329.683594 73.046875 C 333.648438 73.046875 336.773438 76.167969 336.773438 80.128906 L 336.773438 262.828125 L 38.300781 262.828125 Z M 363.59375 262.890625 L 347.832031 262.890625 L 347.832031 80.128906 C 347.832031 70.179688 339.742188 62.070312 329.714844 62.070312 L 45.363281 62.070312 C 35.402344 62.070312 27.277344 70.179688 27.277344 80.128906 L 27.277344 262.828125 L 11.515625 262.828125 C 8.453125 262.890625 6.003906 265.335938 6.003906 268.394531 C 6.003906 292.632812 25.761719 312.363281 50.035156 312.363281 L 325.074219 312.363281 C 349.347656 312.363281 369.109375 292.632812 369.109375 268.394531 C 369.109375 265.335938 366.691406 262.890625 363.59375 262.890625 " fill-opacity="1" fill-rule="nonzero"/></g><path fill="#ffffff" d="M 305.214844 238.363281 L 69.894531 238.363281 L 69.894531 97.863281 L 305.183594 97.863281 L 305.183594 238.363281 Z M 310.726562 86.886719 L 64.382812 86.886719 C 61.320312 86.886719 58.867188 89.332031 58.867188 92.390625 L 58.867188 243.867188 C 58.867188 246.925781 61.320312 249.371094 64.382812 249.371094 L 310.664062 249.371094 C 313.726562 249.371094 316.175781 246.925781 316.175781 243.867188 L 316.175781 92.390625 C 316.242188 89.332031 313.726562 86.886719 310.726562 86.886719 " fill-opacity="1" fill-rule="nonzero"/><path fill="#ffffff" d="M 172.050781 211.746094 C 172.695312 211.96875 173.273438 212.066406 173.886719 212.066406 C 176.144531 212.066406 178.238281 210.648438 179.042969 208.398438 L 206.089844 131.46875 C 207.121094 128.570312 205.574219 125.449219 202.769531 124.449219 C 199.867188 123.421875 196.742188 124.964844 195.710938 127.796875 L 168.664062 204.726562 C 167.699219 207.59375 169.246094 210.714844 172.050781 211.746094 Z M 258.023438 169.257812 L 221.210938 198.386719 C 218.824219 200.253906 218.40625 203.699219 220.304688 206.078125 C 221.371094 207.429688 223.015625 208.171875 224.59375 208.171875 C 225.785156 208.171875 226.980469 207.785156 228.011719 206.980469 L 270.238281 173.601562 C 271.53125 172.605469 272.335938 170.996094 272.335938 169.351562 C 272.335938 167.710938 271.5625 166.132812 270.273438 165.070312 L 226.300781 129.246094 C 223.917969 127.347656 220.46875 127.667969 218.597656 130.050781 C 216.664062 132.433594 217.019531 135.878906 219.371094 137.742188 Z M 147.097656 206.980469 C 148.128906 207.785156 149.324219 208.171875 150.515625 208.171875 C 152.160156 208.171875 153.738281 207.429688 154.804688 206.078125 C 156.707031 203.699219 156.285156 200.253906 153.902344 198.386719 L 117.085938 169.257812 L 155.738281 137.742188 C 158.089844 135.84375 158.445312 132.367188 156.511719 130.050781 C 154.609375 127.667969 151.128906 127.347656 148.808594 129.246094 L 104.835938 165.070312 C 103.546875 166.132812 102.773438 167.648438 102.773438 169.351562 C 102.773438 170.996094 103.582031 172.605469 104.902344 173.601562 L 147.097656 206.980469 " fill-opacity="1" fill-rule="nonzero"/></svg>