<svg xmlns="http://www.w3.org/2000/svg" xmlns:xlink="http://www.w3.org/1999/xlink" width="500" zoomAndPan="magnify" viewBox="0 0 375 374.999991" height="500" preserveAspectRatio="xMidYMid meet" version="1.0"><defs><clipPath id="071617a5f7"><path d="M 5.96875 0 L 369.46875 0 L 369.46875 375 L 5.96875 375 Z M 5.96875 0 " clip-rule="nonzero"/></clipPath></defs><g clip-path="url(#071617a5f7)"><path fill="#5271ff" d="M 357.710938 199.21875 L 334.257812 199.21875 L 334.257812 193.359375 C 334.257812 188.664062 332.425781 184.238281 329.128906 180.941406 C 324.167969 175.980469 316.507812 174.75 310.144531 177.144531 C 309.378906 174.183594 307.878906 171.453125 305.679688 169.222656 C 300.71875 164.261719 293.054688 163.03125 286.695312 165.425781 C 285.929688 162.464844 284.429688 159.734375 282.230469 157.503906 C 275.570312 150.84375 263.976562 150.84375 257.316406 157.503906 C 255.117188 159.734375 253.617188 162.464844 252.851562 165.425781 C 246.492188 163.03125 238.828125 164.261719 233.867188 169.222656 C 230.570312 172.519531 228.738281 176.945312 228.738281 181.640625 L 228.738281 199.21875 L 146.664062 199.21875 L 146.664062 181.640625 C 146.664062 176.945312 144.832031 172.519531 141.5 169.222656 C 136.570312 164.261719 128.910156 163.03125 122.546875 165.425781 C 121.78125 162.464844 120.28125 159.734375 118.050781 157.503906 C 111.421875 150.84375 99.832031 150.84375 93.203125 157.503906 C 90.972656 159.734375 89.472656 162.464844 88.671875 165.425781 C 82.34375 163.03125 74.683594 164.261719 69.753906 169.222656 C 67.523438 171.453125 66.023438 174.183594 65.222656 177.144531 C 58.894531 174.75 51.234375 175.980469 46.304688 180.941406 C 42.972656 184.238281 41.140625 188.664062 41.140625 193.359375 L 41.140625 199.21875 L 17.691406 199.21875 L 17.691406 70.3125 L 357.710938 70.3125 Z M 322.535156 268.464844 L 304.949219 315.339844 L 304.949219 328.125 L 246.324219 328.125 L 246.324219 313.976562 L 244.59375 312.246094 C 236.929688 304.585938 217.011719 280.882812 217.011719 263.804688 L 217.011719 234.375 C 217.011719 232.808594 217.613281 231.34375 218.746094 230.246094 C 220.941406 228.015625 224.804688 228.015625 227.003906 230.246094 C 228.136719 231.34375 228.738281 232.808594 228.738281 234.375 L 228.738281 257.8125 L 240.460938 257.8125 L 240.460938 181.640625 C 240.460938 180.074219 241.0625 178.609375 242.195312 177.480469 C 244.390625 175.28125 248.257812 175.28125 250.453125 177.480469 C 251.585938 178.609375 252.1875 180.074219 252.1875 181.640625 L 252.1875 228.515625 L 263.910156 228.515625 L 263.910156 169.921875 C 263.910156 168.355469 264.511719 166.890625 265.644531 165.761719 C 267.839844 163.5625 271.707031 163.5625 273.902344 165.761719 C 275.035156 166.890625 275.636719 168.355469 275.636719 169.921875 L 275.636719 228.515625 L 287.359375 228.515625 L 287.359375 181.640625 C 287.359375 180.074219 287.960938 178.609375 289.09375 177.480469 C 291.292969 175.28125 295.15625 175.28125 297.351562 177.480469 C 298.484375 178.609375 299.085938 180.074219 299.085938 181.640625 L 299.085938 228.515625 L 310.808594 228.515625 L 310.808594 193.359375 C 310.808594 191.792969 311.410156 190.328125 312.542969 189.199219 C 314.742188 187 318.605469 187 320.804688 189.199219 C 321.933594 190.328125 322.535156 191.792969 322.535156 193.359375 Z M 148.363281 230.246094 C 150.59375 228.015625 154.457031 228.015625 156.65625 230.246094 C 157.789062 231.34375 158.386719 232.808594 158.386719 234.375 L 158.386719 263.804688 C 158.386719 280.882812 138.46875 304.585938 130.773438 312.246094 L 129.078125 313.976562 L 129.078125 328.125 L 70.453125 328.125 L 70.453125 315.339844 L 52.867188 268.464844 L 52.867188 193.359375 C 52.867188 191.792969 53.464844 190.328125 54.597656 189.230469 C 56.796875 187 60.660156 187 62.859375 189.230469 C 63.992188 190.328125 64.589844 191.792969 64.589844 193.359375 L 64.589844 228.515625 L 76.316406 228.515625 L 76.316406 181.640625 C 76.316406 180.074219 76.914062 178.609375 78.046875 177.511719 C 80.246094 175.28125 84.109375 175.28125 86.308594 177.511719 C 87.441406 178.609375 88.039062 180.074219 88.039062 181.640625 L 88.039062 228.515625 L 99.765625 228.515625 L 99.765625 169.921875 C 99.765625 168.355469 100.363281 166.890625 101.496094 165.792969 C 103.695312 163.5625 107.558594 163.5625 109.757812 165.792969 C 110.890625 166.890625 111.488281 168.355469 111.488281 169.921875 L 111.488281 228.515625 L 123.214844 228.515625 L 123.214844 181.640625 C 123.214844 180.074219 123.8125 178.609375 124.945312 177.511719 C 127.144531 175.28125 131.007812 175.28125 133.207031 177.511719 C 134.339844 178.609375 134.9375 180.074219 134.9375 181.640625 L 134.9375 257.8125 L 146.664062 257.8125 L 146.664062 234.375 C 146.664062 232.808594 147.261719 231.34375 148.363281 230.246094 Z M 366.003906 62.023438 C 363.769531 59.824219 360.839844 58.59375 357.710938 58.59375 L 193.5625 58.59375 L 193.5625 52.734375 C 193.5625 48.039062 191.730469 43.613281 188.398438 40.316406 C 185.101562 36.988281 180.671875 35.15625 175.976562 35.15625 L 140.800781 35.15625 C 139.234375 35.15625 137.769531 34.558594 136.671875 33.425781 C 135.539062 32.328125 134.9375 30.863281 134.9375 29.296875 C 134.9375 27.730469 135.539062 26.265625 136.671875 25.167969 C 137.769531 24.035156 139.234375 23.4375 140.800781 23.4375 L 211.148438 23.4375 C 215.847656 23.4375 220.277344 21.605469 223.605469 18.277344 C 226.90625 14.980469 228.738281 10.554688 228.738281 5.859375 L 228.738281 0 L 217.011719 0 L 217.011719 5.859375 C 217.011719 7.425781 216.414062 8.890625 215.28125 10.019531 C 214.179688 11.121094 212.714844 11.71875 211.148438 11.71875 L 140.800781 11.71875 C 136.105469 11.71875 131.675781 13.550781 128.378906 16.878906 C 125.046875 20.175781 123.214844 24.601562 123.214844 29.296875 C 123.214844 33.992188 125.046875 38.417969 128.378906 41.714844 C 131.675781 45.042969 136.105469 46.875 140.800781 46.875 L 175.976562 46.875 C 177.542969 46.875 179.007812 47.472656 180.105469 48.605469 C 181.238281 49.703125 181.839844 51.167969 181.839844 52.734375 L 181.839844 58.59375 L 17.691406 58.59375 C 14.558594 58.59375 11.628906 59.824219 9.398438 62.023438 C 7.199219 64.253906 5.96875 67.183594 5.96875 70.3125 L 5.96875 199.21875 C 5.96875 202.347656 7.199219 205.277344 9.398438 207.507812 C 11.597656 209.707031 14.558594 210.9375 17.691406 210.9375 L 41.140625 210.9375 L 41.140625 270.597656 L 58.726562 317.472656 L 58.726562 329.757812 C 57.863281 330.253906 57.03125 330.855469 56.296875 331.585938 C 54.097656 333.785156 52.867188 336.714844 52.867188 339.84375 L 52.867188 375 L 64.589844 375 L 64.589844 339.84375 L 134.9375 339.84375 L 134.9375 375 L 146.664062 375 L 146.664062 339.84375 C 146.664062 336.714844 145.429688 333.785156 143.234375 331.554688 C 142.5 330.820312 141.667969 330.253906 140.800781 329.722656 L 140.800781 318.769531 C 147.363281 311.777344 170.113281 286.042969 170.113281 263.804688 L 170.113281 234.375 C 170.113281 229.679688 168.28125 225.253906 164.949219 221.921875 C 160.1875 217.164062 152.859375 215.898438 146.664062 217.996094 L 146.664062 210.9375 L 228.738281 210.9375 L 228.738281 217.996094 C 222.542969 215.898438 215.214844 217.164062 210.449219 221.957031 C 207.121094 225.253906 205.289062 229.679688 205.289062 234.375 L 205.289062 263.804688 C 205.289062 286.042969 228.039062 311.777344 234.597656 318.769531 L 234.597656 329.722656 C 233.734375 330.253906 232.902344 330.820312 232.167969 331.554688 C 229.96875 333.785156 228.738281 336.714844 228.738281 339.84375 L 228.738281 375 L 240.460938 375 L 240.460938 339.84375 L 310.808594 339.84375 L 310.808594 375 L 322.535156 375 L 322.535156 339.84375 C 322.535156 336.714844 321.300781 333.785156 319.105469 331.554688 C 318.371094 330.820312 317.539062 330.253906 316.671875 329.722656 L 316.671875 317.472656 L 334.257812 270.597656 L 334.257812 210.9375 L 357.710938 210.9375 C 360.839844 210.9375 363.804688 209.707031 366.003906 207.507812 C 368.203125 205.3125 369.433594 202.347656 369.433594 199.21875 L 369.433594 70.3125 C 369.433594 67.183594 368.203125 64.21875 366.003906 62.023438 " fill-opacity="1" fill-rule="nonzero"/></g><path fill="#5271ff" d="M 41.140625 82.03125 L 52.867188 82.03125 L 52.867188 93.75 L 41.140625 93.75 L 41.140625 82.03125 " fill-opacity="1" fill-rule="nonzero"/><path fill="#5271ff" d="M 64.589844 82.03125 L 76.316406 82.03125 L 76.316406 93.75 L 64.589844 93.75 L 64.589844 82.03125 " fill-opacity="1" fill-rule="nonzero"/><path fill="#5271ff" d="M 88.039062 82.03125 L 99.765625 82.03125 L 99.765625 93.75 L 88.039062 93.75 L 88.039062 82.03125 " fill-opacity="1" fill-rule="nonzero"/><path fill="#5271ff" d="M 111.488281 82.03125 L 123.214844 82.03125 L 123.214844 93.75 L 111.488281 93.75 L 111.488281 82.03125 " fill-opacity="1" fill-rule="nonzero"/><path fill="#5271ff" d="M 134.9375 82.03125 L 146.664062 82.03125 L 146.664062 93.75 L 134.9375 93.75 L 134.9375 82.03125 " fill-opacity="1" fill-rule="nonzero"/><path fill="#5271ff" d="M 158.386719 82.03125 L 170.113281 82.03125 L 170.113281 93.75 L 158.386719 93.75 L 158.386719 82.03125 " fill-opacity="1" fill-rule="nonzero"/><path fill="#5271ff" d="M 181.839844 82.03125 L 193.5625 82.03125 L 193.5625 93.75 L 181.839844 93.75 L 181.839844 82.03125 " fill-opacity="1" fill-rule="nonzero"/><path fill="#5271ff" d="M 205.289062 82.03125 L 217.011719 82.03125 L 217.011719 93.75 L 205.289062 93.75 L 205.289062 82.03125 " fill-opacity="1" fill-rule="nonzero"/><path fill="#5271ff" d="M 228.738281 82.03125 L 240.460938 82.03125 L 240.460938 93.75 L 228.738281 93.75 L 228.738281 82.03125 " fill-opacity="1" fill-rule="nonzero"/><path fill="#5271ff" d="M 252.1875 82.03125 L 263.910156 82.03125 L 263.910156 93.75 L 252.1875 93.75 L 252.1875 82.03125 " fill-opacity="1" fill-rule="nonzero"/><path fill="#5271ff" d="M 275.636719 82.03125 L 287.359375 82.03125 L 287.359375 93.75 L 275.636719 93.75 L 275.636719 82.03125 " fill-opacity="1" fill-rule="nonzero"/><path fill="#5271ff" d="M 299.085938 82.03125 L 310.808594 82.03125 L 310.808594 93.75 L 299.085938 93.75 L 299.085938 82.03125 " fill-opacity="1" fill-rule="nonzero"/><path fill="#5271ff" d="M 322.535156 82.03125 L 334.257812 82.03125 L 334.257812 93.75 L 322.535156 93.75 L 322.535156 82.03125 " fill-opacity="1" fill-rule="nonzero"/><path fill="#5271ff" d="M 29.417969 105.46875 L 41.140625 105.46875 L 41.140625 117.1875 L 29.417969 117.1875 L 29.417969 105.46875 " fill-opacity="1" fill-rule="nonzero"/><path fill="#5271ff" d="M 52.867188 105.46875 L 64.589844 105.46875 L 64.589844 117.1875 L 52.867188 117.1875 L 52.867188 105.46875 " fill-opacity="1" fill-rule="nonzero"/><path fill="#5271ff" d="M 76.316406 105.46875 L 88.039062 105.46875 L 88.039062 117.1875 L 76.316406 117.1875 L 76.316406 105.46875 " fill-opacity="1" fill-rule="nonzero"/><path fill="#5271ff" d="M 99.765625 105.46875 L 111.488281 105.46875 L 111.488281 117.1875 L 99.765625 117.1875 L 99.765625 105.46875 " fill-opacity="1" fill-rule="nonzero"/><path fill="#5271ff" d="M 123.214844 105.46875 L 134.9375 105.46875 L 134.9375 117.1875 L 123.214844 117.1875 L 123.214844 105.46875 " fill-opacity="1" fill-rule="nonzero"/><path fill="#5271ff" d="M 146.664062 105.46875 L 158.386719 105.46875 L 158.386719 117.1875 L 146.664062 117.1875 L 146.664062 105.46875 " fill-opacity="1" fill-rule="nonzero"/><path fill="#5271ff" d="M 170.113281 105.46875 L 181.839844 105.46875 L 181.839844 117.1875 L 170.113281 117.1875 L 170.113281 105.46875 " fill-opacity="1" fill-rule="nonzero"/><path fill="#5271ff" d="M 193.5625 105.46875 L 205.289062 105.46875 L 205.289062 117.1875 L 193.5625 117.1875 L 193.5625 105.46875 " fill-opacity="1" fill-rule="nonzero"/><path fill="#5271ff" d="M 217.011719 105.46875 L 228.738281 105.46875 L 228.738281 117.1875 L 217.011719 117.1875 L 217.011719 105.46875 " fill-opacity="1" fill-rule="nonzero"/><path fill="#5271ff" d="M 240.460938 105.46875 L 252.1875 105.46875 L 252.1875 117.1875 L 240.460938 117.1875 L 240.460938 105.46875 " fill-opacity="1" fill-rule="nonzero"/><path fill="#5271ff" d="M 263.910156 105.46875 L 275.636719 105.46875 L 275.636719 117.1875 L 263.910156 117.1875 L 263.910156 105.46875 " fill-opacity="1" fill-rule="nonzero"/><path fill="#5271ff" d="M 287.359375 105.46875 L 299.085938 105.46875 L 299.085938 117.1875 L 287.359375 117.1875 L 287.359375 105.46875 " fill-opacity="1" fill-rule="nonzero"/><path fill="#5271ff" d="M 310.808594 105.46875 L 322.535156 105.46875 L 322.535156 117.1875 L 310.808594 117.1875 L 310.808594 105.46875 " fill-opacity="1" fill-rule="nonzero"/><path fill="#5271ff" d="M 334.257812 105.46875 L 345.984375 105.46875 L 345.984375 117.1875 L 334.257812 117.1875 L 334.257812 105.46875 " fill-opacity="1" fill-rule="nonzero"/><path fill="#5271ff" d="M 41.140625 128.90625 L 52.867188 128.90625 L 52.867188 140.625 L 41.140625 140.625 L 41.140625 128.90625 " fill-opacity="1" fill-rule="nonzero"/><path fill="#5271ff" d="M 64.589844 128.90625 L 76.316406 128.90625 L 76.316406 140.625 L 64.589844 140.625 L 64.589844 128.90625 " fill-opacity="1" fill-rule="nonzero"/><path fill="#5271ff" d="M 88.039062 128.90625 L 99.765625 128.90625 L 99.765625 140.625 L 88.039062 140.625 L 88.039062 128.90625 " fill-opacity="1" fill-rule="nonzero"/><path fill="#5271ff" d="M 111.488281 128.90625 L 123.214844 128.90625 L 123.214844 140.625 L 111.488281 140.625 L 111.488281 128.90625 " fill-opacity="1" fill-rule="nonzero"/><path fill="#5271ff" d="M 134.9375 128.90625 L 146.664062 128.90625 L 146.664062 140.625 L 134.9375 140.625 L 134.9375 128.90625 " fill-opacity="1" fill-rule="nonzero"/><path fill="#5271ff" d="M 158.386719 128.90625 L 170.113281 128.90625 L 170.113281 140.625 L 158.386719 140.625 L 158.386719 128.90625 " fill-opacity="1" fill-rule="nonzero"/><path fill="#5271ff" d="M 181.839844 128.90625 L 193.5625 128.90625 L 193.5625 140.625 L 181.839844 140.625 L 181.839844 128.90625 " fill-opacity="1" fill-rule="nonzero"/><path fill="#5271ff" d="M 205.289062 128.90625 L 217.011719 128.90625 L 217.011719 140.625 L 205.289062 140.625 L 205.289062 128.90625 " fill-opacity="1" fill-rule="nonzero"/><path fill="#5271ff" d="M 228.738281 128.90625 L 240.460938 128.90625 L 240.460938 140.625 L 228.738281 140.625 L 228.738281 128.90625 " fill-opacity="1" fill-rule="nonzero"/><path fill="#5271ff" d="M 252.1875 128.90625 L 263.910156 128.90625 L 263.910156 140.625 L 252.1875 140.625 L 252.1875 128.90625 " fill-opacity="1" fill-rule="nonzero"/><path fill="#5271ff" d="M 275.636719 128.90625 L 287.359375 128.90625 L 287.359375 140.625 L 275.636719 140.625 L 275.636719 128.90625 " fill-opacity="1" fill-rule="nonzero"/><path fill="#5271ff" d="M 299.085938 128.90625 L 310.808594 128.90625 L 310.808594 140.625 L 299.085938 140.625 L 299.085938 128.90625 " fill-opacity="1" fill-rule="nonzero"/><path fill="#5271ff" d="M 322.535156 128.90625 L 334.257812 128.90625 L 334.257812 140.625 L 322.535156 140.625 L 322.535156 128.90625 " fill-opacity="1" fill-rule="nonzero"/><path fill="#5271ff" d="M 29.417969 152.34375 L 41.140625 152.34375 L 41.140625 164.0625 L 29.417969 164.0625 L 29.417969 152.34375 " fill-opacity="1" fill-rule="nonzero"/><path fill="#5271ff" d="M 52.867188 152.34375 L 64.589844 152.34375 L 64.589844 164.0625 L 52.867188 164.0625 L 52.867188 152.34375 " fill-opacity="1" fill-rule="nonzero"/><path fill="#5271ff" d="M 146.664062 152.34375 L 158.386719 152.34375 L 158.386719 164.0625 L 146.664062 164.0625 L 146.664062 152.34375 " fill-opacity="1" fill-rule="nonzero"/><path fill="#5271ff" d="M 170.113281 152.34375 L 181.839844 152.34375 L 181.839844 164.0625 L 170.113281 164.0625 L 170.113281 152.34375 " fill-opacity="1" fill-rule="nonzero"/><path fill="#5271ff" d="M 193.5625 152.34375 L 205.289062 152.34375 L 205.289062 164.0625 L 193.5625 164.0625 L 193.5625 152.34375 " fill-opacity="1" fill-rule="nonzero"/><path fill="#5271ff" d="M 217.011719 152.34375 L 228.738281 152.34375 L 228.738281 164.0625 L 217.011719 164.0625 L 217.011719 152.34375 " fill-opacity="1" fill-rule="nonzero"/><path fill="#5271ff" d="M 310.808594 152.34375 L 322.535156 152.34375 L 322.535156 164.0625 L 310.808594 164.0625 L 310.808594 152.34375 " fill-opacity="1" fill-rule="nonzero"/><path fill="#5271ff" d="M 334.257812 152.34375 L 345.984375 152.34375 L 345.984375 164.0625 L 334.257812 164.0625 L 334.257812 152.34375 " fill-opacity="1" fill-rule="nonzero"/><path fill="#5271ff" d="M 158.386719 175.78125 L 217.011719 175.78125 L 217.011719 187.5 L 158.386719 187.5 L 158.386719 175.78125 " fill-opacity="1" fill-rule="nonzero"/></svg>